<svg width="18" height="22" viewBox="0 0 18 22" fill="none" xmlns="http://www.w3.org/2000/svg">
<g id="Group">
<path id="Vector" d="M16.3869 4.17705L12.1832 0.714673C11.8258 0.420604 11.2315 0.207153 10.77 0.207153H6.82007C6.22546 0.207153 5.7417 0.686154 5.7417 1.27488C5.7417 1.27488 5.74917 15.2089 5.74917 15.282C5.74917 15.8139 6.12062 16.1855 6.65254 16.1855C6.98724 16.1855 15.9823 16.1913 15.9823 16.1913C16.5664 16.1913 17.0238 15.7198 17.0238 15.1178V5.56695C17.0238 5.07331 16.75 4.47576 16.3869 4.17705ZM11.8493 4.53574V1.62557L15.6036 4.8525H12.1558C12.0269 4.8525 11.8493 4.66898 11.8493 4.53574Z" fill="black"/>
<path id="Vector_2" d="M12.8262 18.0208L11.9267 18.0202C11.5657 18.0202 11.4377 18.2603 11.4377 18.4658V19.1046C11.4377 19.1732 11.4422 19.234 11.4491 19.2875L10.9223 19.2888C8.80082 19.294 3.25945 19.3074 2.71729 19.3081L2.71735 18.6307C2.71835 11.3747 2.71888 7.08515 2.71888 5.84025C2.76874 5.84749 2.82502 5.85207 2.8877 5.85207H3.43338C3.61255 5.85207 3.7595 5.75211 3.82636 5.58464C3.86711 5.48256 3.86705 5.38189 3.86705 5.34867L3.86646 4.56843C3.86646 4.28371 3.66447 4.08484 3.37534 4.08484C3.35059 4.08484 3.32936 4.08625 3.31331 4.08796H2.88776C1.67421 4.08796 0.949707 4.66768 0.949707 5.63909C0.949825 5.80691 0.957175 19.3668 0.957175 19.4572C0.957175 20.4399 1.6822 21.1262 2.72029 21.1262C2.96885 21.1262 7.71434 21.1036 10.2638 21.0915C11.0942 21.0876 11.6542 21.0849 11.6752 21.0849C12.6311 21.0849 13.2017 20.3446 13.2017 19.1046V18.4567C13.2017 18.0775 12.9663 18.0208 12.8262 18.0208Z" fill="black"/>
</g>
</svg>
