<svg width="505" height="528" viewBox="0 0 505 528" fill="none" xmlns="http://www.w3.org/2000/svg">
<path d="M7.55603 20.8713L93.2251 47.1378L142.475 169.47C141.406 170.603 140.537 171.937 140.002 173.537L115.945 247.136C115.144 249.536 115.277 252.136 116.213 254.469L183.238 418.401C180.698 426.401 179.362 434.868 179.362 443.601C179.362 490.134 217.318 528 263.962 528C310.605 528 348.562 490.134 348.562 443.601C348.562 436.134 347.559 428.934 345.755 422.068L498.516 357.068C503.929 354.735 506.468 348.468 504.129 343.068C501.79 337.668 495.509 335.135 490.096 337.468L337.669 402.335C334.528 396.801 330.853 391.668 326.643 387.001L470.048 327.802C471.92 327.002 473.39 325.535 474.192 323.669C474.994 321.802 474.994 319.669 474.192 317.802L400.016 138.937C398.413 135.07 393.935 133.204 390.06 134.804L374.957 141.07L322.5 14.6714C321.698 12.8047 320.228 11.3381 318.357 10.5381C316.486 9.73809 314.414 9.73809 312.476 10.5381L176.154 66.8042C174.283 67.6042 172.813 69.0709 172.011 70.9375C171.209 72.8042 171.209 74.9375 172.011 76.8042L224.468 203.203L206.894 210.47C203.018 212.07 201.147 216.536 202.75 220.403L260.353 359.335C254.406 359.602 248.659 360.468 243.112 361.868L111.201 34.4712C109.998 31.4712 107.526 29.2046 104.385 28.2713L13.8375 0.471511C8.22428 -1.26181 2.21007 1.93816 0.472631 7.53811C-1.26481 13.2047 1.94277 19.138 7.55603 20.8713ZM188.918 78.0041L226.674 62.4043L241.241 97.5373L287.952 78.2708L273.384 43.1378L311.14 27.5379L360.523 146.604L238.301 197.07L188.918 78.0041ZM263.895 380.601C265.632 380.601 267.437 380.668 269.174 380.868C275.589 381.401 281.804 382.868 287.551 385.201C288.152 385.468 288.687 385.668 289.288 385.935C295.102 388.468 300.381 391.868 305.126 395.935C310.071 400.201 314.414 405.201 317.822 410.801C321.498 416.801 324.237 423.534 325.774 430.668C326.643 434.868 327.111 439.201 327.111 443.667C327.111 478.4 298.777 506.667 263.962 506.667C229.146 506.667 200.813 478.4 200.813 443.667C200.813 420.868 212.975 400.868 231.218 389.801C237.232 386.135 243.981 383.468 251.131 381.935C255.275 381.068 259.618 380.601 263.962 380.601H263.895ZM219.657 221.603L272.783 199.67L293.365 249.269L356.113 223.336L335.531 173.737L388.656 151.803L457.018 316.602L313.946 375.668C303.321 367.868 290.758 362.402 277.126 360.268L219.59 221.603H219.657ZM196.068 393.268L171.61 333.468L201.214 315.335L223.132 369.735C212.507 375.601 203.285 383.668 196.135 393.268H196.068ZM163.458 313.469L137.53 250.003L154.303 198.736L193.128 295.202L163.458 313.402V313.469Z" fill="#050505"/>
</svg>
