<svg width="622" height="621" viewBox="0 0 622 621" fill="none" xmlns="http://www.w3.org/2000/svg">
<path d="M7.55603 20.8713L93.2251 47.1378L142.475 169.47C141.406 170.603 140.537 171.937 140.002 173.537L115.945 247.136C115.144 249.536 115.277 252.136 116.213 254.469L183.238 418.401C180.698 426.401 179.362 434.868 179.362 443.601C179.362 490.134 217.318 528 263.962 528C310.605 528 348.562 490.134 348.562 443.601C348.562 436.134 347.559 428.934 345.755 422.068L498.516 357.068C503.929 354.735 506.468 348.468 504.129 343.068C501.79 337.668 495.509 335.135 490.096 337.468L337.669 402.335C334.528 396.801 330.853 391.668 326.643 387.001L470.048 327.802C471.92 327.002 473.39 325.535 474.192 323.669C474.994 321.802 474.994 319.669 474.192 317.802L400.016 138.937C398.413 135.07 393.935 133.204 390.06 134.804L374.957 141.07L322.5 14.6714C321.698 12.8047 320.228 11.3381 318.357 10.5381C316.486 9.73809 314.414 9.73809 312.476 10.5381L176.154 66.8042C174.283 67.6042 172.813 69.0709 172.011 70.9375C171.209 72.8042 171.209 74.9375 172.011 76.8042L224.468 203.203L206.894 210.47C203.018 212.07 201.147 216.536 202.75 220.403L260.353 359.335C254.406 359.602 248.659 360.468 243.112 361.868L111.201 34.4712C109.998 31.4712 107.526 29.2046 104.385 28.2713L13.8375 0.471511C8.22428 -1.26181 2.21007 1.93816 0.472631 7.53811C-1.26481 13.2047 1.94277 19.138 7.55603 20.8713ZM188.918 78.0041L226.674 62.4043L241.241 97.5373L287.952 78.2708L273.384 43.1378L311.14 27.5379L360.523 146.604L238.301 197.07L188.918 78.0041ZM263.895 380.601C265.632 380.601 267.437 380.668 269.174 380.868C275.589 381.401 281.804 382.868 287.551 385.201C288.152 385.468 288.687 385.668 289.288 385.935C295.102 388.468 300.381 391.868 305.126 395.935C310.071 400.201 314.414 405.201 317.822 410.801C321.498 416.801 324.237 423.534 325.774 430.668C326.643 434.868 327.111 439.201 327.111 443.667C327.111 478.4 298.777 506.667 263.962 506.667C229.146 506.667 200.813 478.4 200.813 443.667C200.813 420.868 212.975 400.868 231.218 389.801C237.232 386.135 243.981 383.468 251.131 381.935C255.275 381.068 259.618 380.601 263.962 380.601H263.895ZM219.657 221.603L272.783 199.67L293.365 249.269L356.113 223.336L335.531 173.737L388.656 151.803L457.018 316.602L313.946 375.668C303.321 367.868 290.758 362.402 277.126 360.268L219.59 221.603H219.657ZM196.068 393.268L171.61 333.468L201.214 315.335L223.132 369.735C212.507 375.601 203.285 383.668 196.135 393.268H196.068ZM163.458 313.469L137.53 250.003L154.303 198.736L193.128 295.202L163.458 313.402V313.469Z" fill="#050505"/>
<g clip-path="url(#clip0_2_135)">
<path d="M287.901 477.833C284.071 462.583 299.001 445.853 299.992 430.98C301.042 415.553 288.673 396.949 294.319 382.919C300.011 368.735 321.862 363.9 331.652 352.173C341.33 340.56 342.15 318.134 355.228 309.918C367.84 301.989 388.272 310.888 403.5 307.063C418.728 303.239 432.531 285.743 447.393 286.773C462.801 287.835 474.119 307.213 488.135 312.876C502.278 318.592 523.847 312.524 535.566 322.335C547.171 332.033 545.065 354.3 553.272 367.374C561.2 380.008 582.236 387.706 586.065 402.956C589.895 418.206 574.965 434.936 573.974 449.809C572.924 465.236 585.294 483.84 579.648 497.87C573.955 512.054 552.098 516.862 542.314 528.616C532.637 540.229 531.816 562.655 518.738 570.871C506.126 578.8 485.694 569.901 470.467 573.726C455.239 577.55 441.435 595.046 426.574 594.016C411.166 592.954 399.847 573.576 385.831 567.913C371.688 562.197 350.119 568.265 338.401 558.454C326.796 548.756 328.902 526.489 320.694 513.415C312.767 500.781 291.731 493.083 287.901 477.833Z" fill="url(#paint0_linear_2_135)"/>
<path d="M370.034 441.807L343.029 448.588L345.016 456.501L366.861 451.015L370.554 465.721L348.709 471.207L353.59 490.644L333.552 495.676L319.297 438.914L366.341 427.1L370.034 441.807ZM443.314 468.112L421.555 473.576L406.763 457.268L401.259 458.651L405.989 477.485L386.38 482.41L372.125 425.647L402.914 417.915C417.707 414.2 427.67 419.287 430.413 430.209C432.573 438.81 430.278 445.329 424.003 449.83L443.314 468.112ZM395.319 435L397.954 445.492L405.694 443.548C409.909 442.49 411.713 440.574 410.741 436.704C409.791 432.92 407.274 431.997 403.06 433.056L395.319 435ZM447.019 467.181L432.764 410.419L479.894 398.583L483.587 413.29L456.496 420.093L458.267 427.146L480.112 421.66L483.525 435.248L461.68 440.734L463.365 447.442L491.488 440.38L495.181 455.087L447.019 467.181ZM500.855 453.662L486.6 396.899L533.73 385.064L537.424 399.77L510.333 406.574L512.104 413.626L533.948 408.14L537.361 421.728L515.516 427.214L517.201 433.923L545.324 426.86L549.017 441.567L500.855 453.662Z" fill="white"/>
</g>
<defs>
<linearGradient id="paint0_linear_2_135" x1="404.846" y1="312.422" x2="474.477" y2="589.695" gradientUnits="userSpaceOnUse">
<stop stop-color="#3422FF"/>
<stop offset="1" stop-color="#A818B5"/>
</linearGradient>
<clipPath id="clip0_2_135">
<rect width="307.423" height="294.789" fill="white" transform="translate(252 334.878) rotate(-14.0971)"/>
</clipPath>
</defs>
</svg>
