<svg width="72" height="60" viewBox="0 0 72 60" fill="none" xmlns="http://www.w3.org/2000/svg">
<g clip-path="url(#clip0_23_1340)">
<path d="M71.86 1.27994C71.6 0.529941 71.29 0.319941 70.81 0.139941C69.76 -0.260059 67.98 0.339941 67.98 0.339941C67.98 0.339941 4.89 23.0099 1.29 25.5199C0.51 26.0599 0.25 26.3699 0.13 26.7399C-0.49 28.5299 1.45 29.3199 1.45 29.3199L17.71 34.6199C17.71 34.6199 18.32 34.7099 18.53 34.5699C22.23 32.2299 55.75 11.0699 57.68 10.3599C57.99 10.2699 58.21 10.3699 58.15 10.5799C57.38 13.2999 28.27 39.1699 28.27 39.1699C28.27 39.1699 28.16 39.3099 28.09 39.4699L28.05 39.4499L26.53 55.5799C26.53 55.5799 25.89 60.5199 30.84 55.5799C34.33 52.0899 37.7 49.1799 39.39 47.7599C44.98 51.6199 51 55.8899 53.59 58.1199C54.89 59.2399 55.99 59.4199 56.88 59.3899C59.34 59.2999 60.03 56.5899 60.03 56.5899C60.03 56.5899 71.53 10.3199 71.91 4.11994C71.95 3.50994 72 3.12994 72 2.70994C72 2.12994 71.95 1.54994 71.86 1.26994V1.27994Z" fill="black"/>
</g>
<defs>
<clipPath id="clip0_23_1340">
<rect width="72" height="59.4" fill="white"/>
</clipPath>
</defs>
</svg>
