<svg width="36" height="14" viewBox="0 0 36 14" fill="none" xmlns="http://www.w3.org/2000/svg">
<rect x="0.25286" y="0.25286" width="35.4943" height="12.8093" rx="1.71974" stroke="black" stroke-width="0.505721"/>
<path d="M29.0317 7.19998H6.53416C6.19389 7.19998 5.91772 6.92381 5.91772 6.58354C5.91772 6.24327 6.19389 5.9671 6.53416 5.9671H29.0317C29.372 5.9671 29.6481 6.24327 29.6481 6.58354C29.6481 6.92381 29.372 7.19998 29.0317 7.19998Z" fill="black"/>
<path d="M25.328 9.71509C25.1308 9.71509 24.9384 9.62139 24.8152 9.44386C24.6228 9.16276 24.6968 8.7781 24.9779 8.58577L27.9319 6.57865L24.9779 4.57153C24.6968 4.3792 24.6228 3.99454 24.8152 3.71344C25.0075 3.43235 25.3921 3.35838 25.6732 3.55071L29.3768 6.06577C29.5445 6.1792 29.648 6.37153 29.648 6.57372C29.648 6.77591 29.5445 6.96824 29.3768 7.08166L25.6732 9.59673C25.5697 9.6707 25.4464 9.70523 25.328 9.70523V9.71509Z" fill="black"/>
</svg>
