<svg width="223" height="83" viewBox="0 0 223 83" fill="none" xmlns="http://www.w3.org/2000/svg">
<rect x="1.56633" y="1.56633" width="219.867" height="79.3468" rx="10.6528" stroke="white" stroke-width="3.13266"/>
<path d="M179.836 44.6002H40.4759C38.3681 44.6002 36.6574 42.8896 36.6574 40.7817C36.6574 38.6739 38.3681 36.9633 40.4759 36.9633H179.836C181.943 36.9633 183.654 38.6739 183.654 40.7817C183.654 42.8896 181.943 44.6002 179.836 44.6002Z" fill="white"/>
<path d="M156.894 60.1798C155.672 60.1798 154.481 59.5994 153.717 58.4997C152.526 56.7585 152.984 54.3757 154.725 53.1843L173.024 40.7513L154.725 28.3183C152.984 27.1269 152.526 24.7442 153.717 23.003C154.909 21.2617 157.291 20.8035 159.033 21.9949L181.974 37.5743C183.013 38.2769 183.654 39.4683 183.654 40.7208C183.654 41.9732 183.013 43.1646 181.974 43.8672L159.033 59.4467C158.391 59.9049 157.627 60.1187 156.894 60.1187V60.1798Z" fill="white"/>
</svg>
