<svg width="49" height="13" viewBox="0 0 49 13" fill="none" xmlns="http://www.w3.org/2000/svg">
<path d="M46.87 7.59998H1.25C0.56 7.59998 0 7.03998 0 6.34998C0 5.65998 0.56 5.09998 1.25 5.09998H46.87C47.56 5.09998 48.12 5.65998 48.12 6.34998C48.12 7.03998 47.56 7.59998 46.87 7.59998Z" fill="black"/>
<path d="M39.36 12.7001C38.96 12.7001 38.57 12.5101 38.32 12.1501C37.93 11.5801 38.08 10.8001 38.65 10.4101L44.64 6.34006L38.65 2.27006C38.08 1.88006 37.93 1.10006 38.32 0.530059C38.71 -0.039941 39.49 -0.189941 40.06 0.200059L47.57 5.30006C47.91 5.53006 48.12 5.92006 48.12 6.33006C48.12 6.74006 47.91 7.13006 47.57 7.36006L40.06 12.4601C39.85 12.6101 39.6 12.6801 39.36 12.6801V12.7001Z" fill="black"/>
</svg>
