<svg width="36" height="14" viewBox="0 0 36 14" fill="none" xmlns="http://www.w3.org/2000/svg">
<rect x="0.25286" y="0.25286" width="35.4943" height="12.8093" rx="1.71974" stroke="black" stroke-width="0.505721"/>
<path d="M29.0318 7.19999H6.53429C6.19401 7.19999 5.91785 6.92382 5.91785 6.58355C5.91785 6.24327 6.19401 5.96711 6.53429 5.96711H29.0318C29.3721 5.96711 29.6483 6.24327 29.6483 6.58355C29.6483 6.92382 29.3721 7.19999 29.0318 7.19999Z" fill="black"/>
<path d="M25.3283 9.7151C25.131 9.7151 24.9387 9.6214 24.8154 9.44386C24.6231 9.16277 24.697 8.77811 24.9781 8.58578L27.9321 6.57866L24.9781 4.57153C24.697 4.3792 24.6231 3.99455 24.8154 3.71345C25.0077 3.43236 25.3924 3.35838 25.6735 3.55071L29.377 6.06578C29.5447 6.1792 29.6483 6.37153 29.6483 6.57373C29.6483 6.77592 29.5447 6.96825 29.377 7.08167L25.6735 9.59674C25.5699 9.67071 25.4466 9.70523 25.3283 9.70523V9.7151Z" fill="black"/>
</svg>
