<svg width="371" height="362" viewBox="0 0 371 362" fill="none" xmlns="http://www.w3.org/2000/svg">
<g clip-path="url(#clip0_2_90)">
<path d="M36.2152 218.102C32.3855 202.852 47.3154 186.122 48.3064 171.249C49.3566 155.822 36.9869 137.218 42.6329 123.188C48.3254 109.004 70.1762 104.169 79.9666 92.4422C89.644 80.829 90.4647 58.4026 103.542 50.1869C116.154 42.2581 136.586 51.1565 151.814 47.3323C167.042 43.5082 180.845 26.0123 195.707 27.0416C211.115 28.1038 222.434 47.4817 236.45 53.1447C250.592 58.861 272.162 52.7925 283.88 62.6037C295.485 72.3017 293.379 94.569 301.587 107.643C309.514 120.276 330.55 127.974 334.38 143.224C338.209 158.474 323.28 175.205 322.288 190.078C321.238 205.505 333.608 224.109 327.962 238.139C322.269 252.322 300.412 257.131 290.628 268.885C280.951 280.498 280.13 302.924 267.052 311.14C254.44 319.069 234.008 310.17 218.781 313.994C203.553 317.819 189.749 335.314 174.888 334.285C159.48 333.223 148.161 313.845 134.145 308.182C120.003 302.466 98.4332 308.534 86.7149 298.723C75.11 289.025 77.2159 266.758 69.0084 253.684C61.0811 241.05 40.0449 233.352 36.2152 218.102Z" fill="url(#paint0_linear_2_90)"/>
<path d="M118.348 182.076L91.3432 188.857L93.3302 196.77L115.175 191.284L118.868 205.99L97.0235 211.476L101.905 230.913L81.8658 235.945L67.6111 179.183L114.655 167.369L118.348 182.076ZM191.628 208.381L169.87 213.845L155.077 197.537L149.573 198.919L154.303 217.754L134.694 222.679L120.439 165.916L151.229 158.184C166.021 154.469 175.984 159.556 178.727 170.478C180.887 179.079 178.593 185.598 172.318 190.099L191.628 208.381ZM143.633 175.269L146.268 185.761L154.009 183.817C158.223 182.759 160.027 180.843 159.056 176.973C158.105 173.189 155.588 172.266 151.374 173.325L143.633 175.269ZM195.333 207.45L181.079 150.688L228.208 138.852L231.902 153.559L204.811 160.362L206.582 167.415L228.427 161.929L231.839 175.517L209.994 181.003L211.679 187.711L239.802 180.649L243.495 195.355L195.333 207.45ZM249.169 193.93L234.915 137.168L282.045 125.332L285.738 140.039L258.647 146.842L260.418 153.895L282.263 148.409L285.675 161.997L263.83 167.483L265.515 174.192L293.638 167.129L297.331 181.836L249.169 193.93Z" fill="white"/>
</g>
<defs>
<linearGradient id="paint0_linear_2_90" x1="153.16" y1="52.6912" x2="222.791" y2="329.964" gradientUnits="userSpaceOnUse">
<stop stop-color="#3422FF"/>
<stop offset="1" stop-color="#A818B5"/>
</linearGradient>
<clipPath id="clip0_2_90">
<rect width="307.423" height="294.789" fill="white" transform="translate(0.314331 75.1467) rotate(-14.0971)"/>
</clipPath>
</defs>
</svg>
