<svg width="183" height="130" viewBox="0 0 183 130" fill="none" xmlns="http://www.w3.org/2000/svg">
<g clip-path="url(#clip0_1_140)">
<path d="M101.134 68.9971L29.7677 93.3352C28.4801 93.7744 27.9322 95.2885 28.6414 96.4534L31.5553 98.4873L26.4214 97.082C23.8924 96.4276 22.1246 94.1496 22.1084 91.5373L21.9126 54.985C21.904 53.7402 22.6926 52.6271 23.8707 52.2254L98.9632 26.6166C100.601 26.0579 102.074 27.7942 101.261 29.3193L90.3737 49.6934C89.7574 50.8455 89.9209 52.2577 90.7863 53.2348L101.953 65.9287C102.852 66.9495 102.42 68.5525 101.138 68.9898L101.134 68.9971Z" fill="url(#paint0_linear_1_140)"/>
<path d="M33.2456 66.016L36.9242 64.6776L37.6896 66.7814L31.1445 69.1627L28.1902 61.0428L31.0568 59.9998L33.2456 66.016ZM38.5058 57.2897L41.4601 65.4096L38.5935 66.4526L35.6393 58.3326L38.5058 57.2897ZM50.1691 53.0463L53.1233 61.1662L50.6258 62.0749L49.6008 59.2575L48.644 56.5128L48.6071 56.5263L49.0511 62.6478L46.7627 63.4804L43.1938 58.4958L43.1446 58.5137L44.1752 61.2315L45.2002 64.0489L42.6905 64.962L39.7362 56.8421L43.747 55.3828L45.9935 58.6474L46.9008 60.0309L46.9254 60.0219L46.7317 58.3788L46.3552 54.4339L50.1691 53.0463ZM54.2689 51.5547L57.2232 59.6746L54.3566 60.7175L51.4024 52.5976L54.2689 51.5547ZM63.0779 48.3498L63.8433 50.4536L61.3089 51.3756L63.4977 57.3918L60.6312 58.4347L58.4424 52.4186L55.8957 53.3451L55.1302 51.2413L63.0779 48.3498ZM66.8878 56.1584L63.9335 48.0385L70.6755 45.5856L71.441 47.6894L67.5655 49.0993L67.9326 50.1082L71.0575 48.9712L71.7647 50.9151L68.6398 52.052L68.9889 53.0117L73.012 51.548L73.7774 53.6518L66.8878 56.1584ZM75.621 43.7863C78.1677 42.8597 80.009 43.8616 80.9489 46.4452C81.8889 49.0288 81.122 50.9796 78.5753 51.9062L74.5891 53.3565L71.6349 45.2365L75.621 43.7863ZM77.4262 50.0116C78.4843 49.6267 78.5267 48.9008 78.0209 47.5105C77.5151 46.1203 77.0161 45.5913 75.9581 45.9763L75.2445 46.2359L76.7127 50.2712L77.4262 50.0116ZM36.4362 81.0711L33.482 72.9512L38.1325 71.2592C40.1915 70.524 41.4354 70.8795 41.9591 72.3189C42.3127 73.2909 41.9985 74.2271 40.8063 74.8559L40.8108 74.8682C42.2793 74.5011 43.1753 75.011 43.5558 76.0567C44.075 77.4839 43.3873 78.5421 41.4066 79.2628L36.4362 81.0711ZM37.3714 75.1026L38.6509 74.637C39.143 74.458 39.313 74.1593 39.1742 73.7779C39.0354 73.3965 38.7133 73.2769 38.2212 73.456L36.9417 73.9215L37.3714 75.1026ZM38.4994 78.2029L39.9634 77.6702C40.4678 77.4867 40.6501 77.1836 40.5069 76.7899C40.3726 76.4208 40.0381 76.3056 39.5337 76.4892L38.0697 77.0218L38.4994 78.2029ZM49.8338 67.002L51.5168 71.6279C52.3986 74.0515 51.5286 75.7194 48.9081 76.6728C46.2876 77.6262 44.5493 76.9073 43.6675 74.4836L41.9845 69.8577L44.8634 68.8103L46.627 73.6577C46.9269 74.482 47.4482 74.766 48.1248 74.5198C48.8138 74.2691 49.0307 73.7166 48.7308 72.8923L46.9672 68.0449L49.8338 67.002ZM58.8507 63.7214L61.805 71.8413L58.7046 72.9693L55.4179 69.9856L54.6125 69.1502L54.5879 69.1592L55.2458 70.8145L56.3425 73.8287L53.8573 74.7329L50.9031 66.6129L54.0034 65.485L57.2946 68.4809L58.0956 69.304L58.1202 69.2951L57.4622 67.6398L56.3656 64.6256L58.8507 63.7214ZM64.0683 61.8231C66.615 60.8965 68.4563 61.8984 69.3963 64.482C70.3362 67.0656 69.5693 69.0165 67.0226 69.943L63.0364 71.3933L60.0822 63.2734L64.0683 61.8231ZM65.8735 68.0484C66.9316 67.6635 66.974 66.9376 66.4682 65.5473C65.9624 64.1571 65.4634 63.6281 64.4054 64.0131L63.6918 64.2727L65.16 68.3081L65.8735 68.0484ZM73.9443 65.0425L77.6228 63.7041L78.3882 65.8079L71.8431 68.1892L68.8889 60.0693L71.7554 59.0263L73.9443 65.0425ZM79.2921 65.479L76.3379 57.3591L83.0799 54.9062L83.8453 57.01L79.9699 58.42L80.3369 59.4288L83.4619 58.2919L84.1691 60.2358L81.0441 61.3727L81.3933 62.3323L85.4163 60.8686L86.1817 62.9724L79.2921 65.479Z" fill="white"/>
</g>
<defs>
<linearGradient id="paint0_linear_1_140" x1="55.232" y1="41.0226" x2="72.5518" y2="91.8093" gradientUnits="userSpaceOnUse">
<stop stop-color="#FFD600"/>
<stop offset="1" stop-color="#FCAD4F"/>
</linearGradient>
<clipPath id="clip0_1_140">
<rect width="165.66" height="79.92" fill="white" transform="translate(0 53.4711) rotate(-18.8309)"/>
</clipPath>
</defs>
</svg>
