<svg width="20" height="18" viewBox="0 0 20 18" fill="none" xmlns="http://www.w3.org/2000/svg">
<g clip-path="url(#clip0_83_961)">
<path d="M17.7157 17.9235H2.28118C1.45622 17.9235 0.719399 17.4969 0.306919 16.7848C-0.105561 16.0726 -0.105561 15.2195 0.306919 14.5073L8.0277 1.13873C8.44018 0.426582 9.17701 0 10.002 0C10.8269 0 11.5638 0.426582 11.9762 1.13873L19.6935 14.5038C20.106 15.2159 20.106 16.0691 19.6935 16.7812C19.281 17.4934 18.5442 17.92 17.7192 17.92L17.7157 17.9235ZM9.05009 1.73101L1.33283 15.0961C1.1354 15.438 1.1354 15.8505 1.33283 16.1925C1.53026 16.5345 1.88633 16.7425 2.28118 16.7425H17.7157C18.1105 16.7425 18.4666 16.538 18.664 16.1925C18.8615 15.8505 18.8615 15.438 18.664 15.0961L10.9503 1.73101C10.7529 1.38904 10.3968 1.18103 10.002 1.18103C9.60711 1.18103 9.25104 1.38551 9.05009 1.73101Z" fill="black"/>
<path d="M10.0016 4.83694C10.8548 4.83694 11.5211 5.58434 11.4188 6.43398L10.7913 11.6728C10.7419 12.0747 10.4035 12.3779 9.99807 12.3779C9.59264 12.3779 9.25067 12.0747 9.20484 11.6728L8.58788 6.43046C8.48917 5.58082 9.15196 4.83694 10.0051 4.83694H10.0016Z" fill="black"/>
<path d="M9.19419 14.9268C8.97561 14.7083 8.86279 14.4368 8.86279 14.1195C8.86279 13.8022 8.97208 13.5308 9.19419 13.3122C9.41277 13.0936 9.68423 12.9808 10.0015 12.9808C10.3188 12.9808 10.5903 13.0901 10.8089 13.3122C11.0274 13.5308 11.1402 13.8022 11.1402 14.1195C11.1402 14.4368 11.031 14.7083 10.8089 14.9268C10.5903 15.1454 10.3188 15.2582 10.0015 15.2582C9.68423 15.2582 9.41277 15.149 9.19419 14.9268Z" fill="black"/>
</g>
<defs>
<clipPath id="clip0_83_961">
<rect width="20" height="17.9235" fill="white"/>
</clipPath>
</defs>
</svg>
